<?xml version="1.0" encoding="utf-8"?>
<!-- Generator: Adobe Illustrator 16.0.0, SVG Export Plug-In . SVG Version: 6.00 Build 0)  -->
<!DOCTYPE svg PUBLIC "-//W3C//DTD SVG 1.1//EN" "http://www.w3.org/Graphics/SVG/1.1/DTD/svg11.dtd">
<svg version="1.1" id="Layer_1" xmlns="http://www.w3.org/2000/svg" xmlns:xlink="http://www.w3.org/1999/xlink" x="0px" y="0px"
	 width="60px" height="60.178px" viewBox="0 0 60 60.178" enable-background="new 0 0 60 60.178" xml:space="preserve">
<g>
	<path fill-rule="evenodd" clip-rule="evenodd" fill="#F9B43B" d="M30.488,70.861l1.482-0.258c0.314-0.055,0.622-0.138,0.945-0.224
		c0.626-0.196,1.386-0.564,1.96-1.311c0.589-0.749,1.183-1.895,1.303-3.399c0.106-1.502-0.166-2.806-0.658-3.777
		c-0.493-0.972-1.485-1.696-2.778-1.616c-0.666,0.058-1.4,0.229-2.097,0.526l-1.367,0.591c-0.137,0.053-0.191,0.165-0.18,0.311
		l1.052,8.907C30.181,70.783,30.317,70.891,30.488,70.861z M30.878,70.147c-0.012,0.018-0.04,0.022-0.069,0.027
		c-0.042,0.008-0.149-0.019-0.122-0.023c0.029-0.005,0.057-0.01,0.069-0.026c0.025-0.02,0.054-0.024,0.069-0.027
		c0.045,0.008,0.076,0.017,0.09,0.014C30.902,70.114,30.89,70.13,30.878,70.147z M31.759,68.878l-0.01-0.058
		c0.071-0.013,0.09,0.013,0.069,0.063C31.804,68.885,31.79,68.887,31.759,68.878z M33.206,69.595l-0.042,0.008
		c0.014-0.003,0.025-0.02,0.04-0.022c0.012-0.016,0.026-0.019,0.026-0.019c0.014-0.002,0.031,0.01,0.036,0.036
		C33.25,69.601,33.236,69.604,33.206,69.595z M34.025,64.179c-0.031-0.01-0.045-0.008-0.064-0.032c0,0,0.014-0.002,0.012-0.017
		L34,64.125c0.057-0.01,0.12,0.008,0.158,0.06c0.019,0.026,0.024,0.056,0.041,0.066c0.019,0.026,0.021,0.041,0.021,0.041
		l0.124,0.037c0.005,0.028-0.007,0.045-0.033,0.064l-0.042,0.008c-0.011,0.016-0.026,0.019-0.055,0.023
		c-0.085,0.015-0.182-0.115-0.187-0.144c-0.002-0.014-0.005-0.028,0.01-0.031c0.012-0.017,0.009-0.031,0.006-0.045
		C34.042,64.191,34.039,64.176,34.025,64.179z M34.289,63.839c-0.002-0.014,0.007-0.045,0.045-0.08
		c0.028-0.006,0.028-0.006,0.059,0.003c0.028-0.005,0.045,0.008,0.045,0.008c0.002,0.014-0.012,0.017-0.009,0.03l-0.047,0.067
		C34.33,63.906,34.299,63.897,34.289,63.839z M34.273,66.618c-0.024,0.034-0.024,0.034-0.052,0.039l-0.01-0.056
		c0.014-0.003,0.043-0.008,0.074,0C34.288,66.616,34.273,66.618,34.273,66.618z M34.307,65.04c-0.017-0.011-0.017-0.011-0.031-0.008
		l0.024-0.033l0.071-0.013C34.374,65,34.374,65,34.388,64.999c0.005,0.026-0.007,0.044-0.036,0.049
		C34.324,65.052,34.31,65.054,34.307,65.04z M34.382,66.571l0.024-0.034c0.019,0.027,0.021,0.04,0.009,0.056
		C34.385,66.583,34.382,66.571,34.382,66.571z M34.415,64.817c-0.017-0.012-0.021-0.041-0.029-0.084l0.054-0.024
		c0.015-0.003,0.043-0.007,0.06,0.005c0.002,0.015,0.019,0.026,0.036,0.038l0.01,0.058c-0.014,0.002-0.026,0.019-0.041,0.021
		l-0.072,0.012C34.434,64.842,34.417,64.832,34.415,64.817z M34.486,66.067L34.45,66.03l-0.005-0.028
		c0.014-0.003,0.025-0.021,0.025-0.021c0.014-0.001,0.026-0.019,0.041-0.021l0.064,0.032C34.552,66.027,34.526,66.045,34.486,66.067
		z M34.658,64.862c0.02,0.027,0.027,0.069,0.003,0.103c-0.017-0.011-0.036-0.037-0.069-0.061c0,0,0.012-0.018,0.026-0.02
		S34.644,64.865,34.658,64.862z M34.638,64.411c0.026-0.02,0.066-0.041,0.11-0.05c0.002,0.015,0.019,0.027,0.007,0.043l0.007,0.044
		l-0.083,0.028c-0.017-0.011-0.019-0.025-0.019-0.025C34.657,64.437,34.657,64.437,34.638,64.411z M34.585,64.612l-0.031-0.01
		l-0.002-0.015l0.045,0.007L34.585,64.612z M34.567,65.187l0.085-0.016c0.015-0.003,0.017,0.012,0.031,0.01
		c0.015-0.003,0.017,0.012,0.02,0.026l0.002,0.014l-0.015,0.003l-0.011,0.017l-0.015,0.002l-0.012,0.018l-0.029,0.005
		C34.592,65.241,34.573,65.215,34.567,65.187z M34.742,66.272c-0.038,0.037-0.105-0.012-0.11-0.04
		c-0.005-0.027,0.011-0.104,0.038-0.123c-0.02-0.026,0.014-0.002,0.082,0.045c0.047,0.021,0.081,0.043,0.095,0.042
		C34.789,66.205,34.751,66.242,34.742,66.272z M34.729,65.864l-0.033-0.024c-0.031-0.009-0.034-0.023-0.037-0.038
		c-0.002-0.014-0.004-0.027,0.007-0.044c0.014-0.003,0.012-0.018,0.009-0.032c0.014-0.002,0.014-0.002,0.026-0.018
		c0.045,0.005,0.079,0.03,0.081,0.044c0.003,0.014,0.003,0.014-0.011,0.016l0.002,0.015c0.017,0.013,0.031,0.01,0.06,0.006
		c0,0,0.016,0.012,0.019,0.025c0.014-0.003,0.017,0.012,0.019,0.026L34.729,65.864z M34.875,65.177
		c-0.043,0.008-0.155,0.041-0.157,0.027c0.012-0.016,0.007-0.045,0.001-0.074c-0.002-0.015,0.007-0.044,0.032-0.064l0.057-0.01
		l0.037,0.038c0.002,0.015,0.021,0.04,0.05,0.035l0.008,0.044L34.875,65.177z M34.792,63.105c-0.005-0.028,0.005-0.059,0.031-0.078
		c0.002,0.015,0.019,0.025,0.038,0.052l0.01,0.059C34.815,63.146,34.797,63.134,34.792,63.105z M35.021,66.694
		c-0.086,0.015-0.12-0.009-0.13-0.065c-0.004-0.028,0.007-0.046,0.033-0.064l0.114-0.021c0.015-0.003,0.045,0.008,0.048,0.022
		l0.036,0.037l0.008,0.042C35.076,66.669,35.05,66.69,35.021,66.694z M35.146,65.893l-0.015-0.084l0.028-0.006l0.015,0.085
		L35.146,65.893z M35.261,67.062c-0.002-0.013-0.002-0.013,0.01-0.028l-0.005-0.029l0.085-0.016l0.01,0.057L35.261,67.062z
		 M35.515,64.889c0.028-0.005,0.045,0.007,0.05,0.035c-0.042,0.009-0.071,0.013-0.073-0.002L35.515,64.889z M35.256,63.745
		l0.015-0.002c0.028-0.006,0.042-0.007,0.059,0.004l0.007,0.043c-0.026,0.019-0.059-0.004-0.093-0.028L35.256,63.745z M35.21,65.251
		l0.028-0.005c0.1-0.019,0.153,0.032,0.158,0.06c0.002,0.015-0.023,0.035-0.05,0.053c-0.043,0.008-0.054,0.024-0.054,0.024
		c-0.029,0.005-0.045-0.007-0.076-0.016l-0.018-0.101C35.213,65.265,35.21,65.251,35.21,65.251z M35.227,65.511
		c-0.015,0.003-0.012,0.018-0.012,0.018l-0.012,0.018l0.002,0.014l-0.034-0.024C35.186,65.534,35.198,65.517,35.227,65.511z
		 M35.12,65.575c0,0,0.002,0.014,0.03,0.01c0.015-0.003,0.029-0.006,0.032,0.009c0.002,0.015-0.007,0.045-0.03,0.08
		c-0.012,0.016-0.021,0.047-0.014,0.09l-0.043,0.007c-0.079-0.03-0.109-0.04-0.117-0.083l-0.032-0.185
		c-0.003-0.015-0.005-0.028,0.009-0.03c0.023-0.034,0.023-0.034,0.019-0.063c-0.003-0.015-0.005-0.029-0.022-0.041
		c-0.016-0.011-0.019-0.025-0.041-0.065c0.012-0.017,0.04-0.022,0.054-0.024l0.014-0.002c0.002,0.015,0.017,0.012,0.031,0.009
		l0.014-0.003C35.035,65.341,35.064,65.423,35.12,65.575z M34.941,63.536c0.042-0.008,0.071-0.013,0.088-0.001l0.013,0.071
		c-0.015,0.003-0.026,0.019-0.041,0.021c-0.042,0.008-0.073-0.002-0.073-0.002c-0.02-0.025-0.034-0.023-0.036-0.038
		C34.886,63.559,34.913,63.541,34.941,63.536z M34.821,62.85c0.005,0.029,0.019,0.027,0.053,0.05
		c-0.023,0.034-0.035,0.052-0.061,0.07c-0.043,0.007-0.063-0.019-0.067-0.048C34.755,62.892,34.793,62.856,34.821,62.85z
		 M34.595,62.73l-0.036-0.038c-0.003-0.015-0.019-0.026-0.034-0.024l0.052-0.038c0.028-0.005,0.057-0.01,0.091,0.014L34.595,62.73z
		 M34.303,62.236c0.026-0.019,0.036-0.05,0.062-0.067c0.071-0.013,0.14-0.04,0.206-0.082l0.013,0.072
		c0.005,0.027,0.021,0.038,0.024,0.053c0.015,0.087-0.08,0.133-0.18,0.149c-0.042,0.008-0.128,0.023-0.143-0.063L34.303,62.236z
		 M34.093,63.051c0.012-0.017,0.023-0.033,0.052-0.038l0.058-0.01c0.03,0.008,0.033,0.022,0.035,0.037l0.034,0.023
		c0.002,0.015,0.034,0.023,0.062,0.02c0.029-0.005,0.031,0.01,0.034,0.022c0.012,0.07-0.097,0.12-0.127,0.11
		c-0.015-0.085-0.078-0.104-0.182-0.115C34.083,63.083,34.095,63.066,34.093,63.051z M33.902,62.292l0.01,0.057l-0.028,0.005
		l-0.01-0.057L33.902,62.292z M33.924,63.096l0.086-0.016l0.034,0.023c-0.038,0.036-0.047,0.067-0.062,0.069l-0.085,0.016
		l-0.017-0.013c0,0-0.002-0.014-0.017-0.012C33.855,63.123,33.881,63.103,33.924,63.096z M33.803,63.836
		c0.043-0.008,0.069-0.027,0.093-0.061c0,0,0.016,0.012,0.031,0.011c0,0,0.017,0.011,0.019,0.025l0.02,0.113l-0.038,0.036
		c-0.09-0.015-0.139-0.034-0.141-0.049c0.01-0.031-0.01-0.057-0.045-0.095C33.758,63.829,33.79,63.839,33.803,63.836z
		 M33.659,62.921c0.014-0.002,0.014-0.002,0.017,0.013c0.005,0.027-0.009,0.029-0.024,0.032c-0.028,0.006-0.06-0.005-0.09-0.013
		C33.585,62.92,33.614,62.916,33.659,62.921z M32.832,60.701c0,0,0.014-0.003,0.031,0.009c0.014-0.003,0.031,0.009,0.06,0.005
		l0.005,0.028c0.002,0.014,0.005,0.028,0.019,0.026l0.005,0.029l-0.099,0.017c-0.029,0.005-0.057,0.011-0.103,0.004
		C32.77,60.77,32.782,60.753,32.832,60.701z M32.771,60.947l0.101-0.018c0.005,0.027,0.007,0.042,0.024,0.055
		c0.017,0.012,0.02,0.025,0.024,0.054c0.003,0.015-0.052,0.038-0.119,0.08c-0.033-0.024-0.053-0.05-0.06-0.093
		C32.733,60.982,32.743,60.951,32.771,60.947z M32.031,61.589l0.157-0.028l-0.009,0.12l-0.16,0.013L32.031,61.589z M31.578,63.034
		c0.192-0.076,0.413-0.159,0.662-0.247c0.484-0.172,0.833-0.189,1.084,0.237c0.234,0.414,0.398,0.768,0.47,1.431
		c0,0,0.009-0.03,0.044-0.08c0.134,0.005,0.198,0.038,0.203,0.066c0.015,0.086-0.083,0.117-0.125,0.124
		c-0.029,0.005-0.06-0.004-0.079-0.029c-0.015,0.002-0.031-0.01-0.05-0.035c0.026,0.317,0.017,0.688-0.019,1.074
		c-0.036,0.302-0.112,0.622-0.212,0.978c-0.185,0.708-0.605,1.163-1.433,1.469l-0.074-0.59l-0.014,0.002
		c-0.071,0.013-0.119-0.008-0.157-0.06c-0.02-0.027-0.039-0.052-0.046-0.095l-0.012-0.071c-0.002-0.015,0.035-0.051,0.085-0.104
		l0.114-0.02l-0.369-3.387c-0.031-0.011-0.062-0.02-0.067-0.049c-0.007-0.041-0.063-0.105-0.14-0.21
		c0.065-0.041,0.118-0.08,0.151-0.144l0.015-0.003L31.578,63.034z M31.372,66.992l0.085-0.016c0.031,0.01,0.064,0.034,0.069,0.062
		c-0.014,0.003-0.043,0.009-0.083,0.03c-0.028,0.005-0.04,0.021-0.055,0.024c-0.002-0.015-0.019-0.026-0.024-0.056
		C31.35,67.04,31.348,67.025,31.372,66.992z M31.103,61.237l0.086-0.016c0.013,0.072,0.02,0.114,0.005,0.117l0.008,0.042
		c-0.043,0.008-0.117,0.006-0.122-0.022C31.074,61.316,31.085,61.298,31.103,61.237z M30.937,69.138
		c0.029-0.005,0.136,0.021,0.148,0.092c0,0-0.028,0.005-0.068,0.026c-0.043,0.009-0.098,0.032-0.155,0.042
		c-0.002-0.015-0.005-0.029-0.019-0.026l-0.005-0.028C30.828,69.186,30.866,69.151,30.937,69.138z M30.69,69.49l0.128-0.022
		c-0.009,0.03,0.01,0.057,0.029,0.083c0.022,0.041,0.041,0.066,0.043,0.081c0.003,0.015-0.021,0.047-0.044,0.081
		c-0.038,0.035-0.059,0.084-0.065,0.128c-0.034-0.022-0.067-0.047-0.091-0.102c-0.029-0.082-0.054-0.138-0.073-0.163
		c0,0-0.017-0.012-0.021-0.041c-0.003-0.014-0.005-0.027-0.022-0.039C30.619,69.501,30.661,69.495,30.69,69.49z M30.614,69.223
		l-0.012,0.018l-0.074-0.002l-0.005-0.028L30.614,69.223z M30.216,61.538c0,0,0.014-0.003,0.026-0.019
		c0.043-0.008,0.105,0.011,0.155,0.046c-0.015,0.003-0.068,0.027-0.183,0.047l-0.005-0.028c-0.014,0.002-0.017-0.013-0.019-0.026
		l-0.002-0.015L30.216,61.538z M29.82,64.662c0.002,0.015,0.002,0.015-0.025,0.02c-0.018-0.013-0.015,0.002-0.026,0.02l-0.062-1.282
		c0.039,0.052,0.11,0.128,0.103,0.173c0.007,0.043-0.016,0.326-0.019,0.312c0.005,0.028,0.012,0.071,0.01,0.146
		c0.013,0.159,0.026,0.318,0.038,0.39l0.018,0.101C29.848,64.569,29.841,64.615,29.82,64.662z M29.885,61.493l-0.033-0.024
		l-0.003-0.013l0.048,0.02L29.885,61.493z M30.057,65.854c0.063,0.02,0.125,0.037,0.191,0.085c-0.026,0.019-0.054,0.024-0.085,0.015
		l-0.086,0.015L30.057,65.854z M30.12,67.988l0.003,0.015c0.003,0.014,0.003,0.014,0.016,0.011l0.003,0.015
		C30.113,68.033,30.063,67.998,30.12,67.988z"/>
	<path fill-rule="evenodd" clip-rule="evenodd" fill="#F9B43B" d="M37.538,69.325c0.032,0.185,0.18,0.277,0.352,0.248l5.946-1.358
		c0.183-0.047,0.251-0.161,0.222-0.333l-0.313-1.796c-0.028-0.157-0.179-0.263-0.35-0.233l-3.786,0.777l-0.136-1.196l3.051-0.957
		c0.152-0.055,0.22-0.17,0.192-0.327l-0.258-1.482c-0.027-0.157-0.192-0.26-0.35-0.232l0.244,1.396l-0.058,0.01l-0.243-1.396
		l-2.91,0.669l-0.104-1.2l3.848-1.098c0.169-0.044,0.236-0.158,0.221-0.332l-0.253-1.703c-0.029-0.173-0.181-0.278-0.365-0.245
		l-5.812,1.291c-0.171,0.029-0.241,0.13-0.24,0.307c0.117,1.595,0.261,3.185,0.465,4.779C37.096,66.45,37.309,67.927,37.538,69.325z
		 M42.345,63.024c-0.03-0.009-0.045-0.007-0.074-0.001l-0.023-0.143l0.074-0.072c0.029-0.005,0.105,0.011,0.122,0.023l0.02,0.114
		l-0.044,0.08C42.405,63.028,42.374,63.019,42.345,63.024z M42.409,63.982l0.048,0.096c0.001,0.015-0.011,0.031-0.02,0.062
		c-0.012,0.018-0.023,0.034-0.044,0.082l-0.063-0.356C42.371,63.931,42.393,63.97,42.409,63.982z M39.474,60.616
		c0.001,0.015-0.008,0.046-0.022,0.049l-0.015,0.002l-0.045-0.006l-0.078-0.031c-0.01-0.058,0.017-0.076,0.059-0.083
		c0.028-0.006,0.074,0.001,0.136,0.02L39.474,60.616z M39.756,60.729l-0.1,0.017c0,0-0.016-0.012-0.018-0.026
		c-0.006-0.027,0.005-0.045,0.018-0.063l0.011-0.016l0.015-0.002c0.015-0.003,0.012-0.018,0.026-0.021
		c0.058-0.009,0.075,0.017,0.081,0.046C39.796,60.707,39.786,60.724,39.756,60.729z M39.812,61.38l-0.008-0.043l0.028-0.006
		l0.008,0.044L39.812,61.38z M41.846,60.335l-0.011-0.071l0.027-0.005l0.013,0.07L41.846,60.335z M41.856,59.202l0.008,0.044
		l-0.028,0.006l-0.008-0.044L41.856,59.202z M40.748,59.5l0.01,0.057l-0.114,0.02l-0.01-0.056L40.748,59.5z M40.392,60.323
		l0.033,0.025c0.018,0.012,0.033,0.023,0.035,0.038l-0.169,0.044C40.288,60.401,40.326,60.365,40.392,60.323z M40.156,60.57
		c-0.026,0.021-0.055,0.025-0.07,0.013l-0.073,0.013l-0.04-0.065c0.025-0.02,0.04-0.022,0.055-0.025
		c0.014-0.002,0.028-0.004,0.055-0.023C40.126,60.488,40.149,60.528,40.156,60.57z M40.06,60.191l-0.006,0.046l-0.019-0.012
		l-0.013,0.002l-0.005-0.029L40.06,60.191z M40.009,59.73l0.005,0.029l-0.057,0.009l-0.005-0.029L40.009,59.73z M39.788,60.399
		c0.065,0.033,0.083,0.061,0.087,0.074l-0.114,0.02L39.788,60.399z M39.659,59.571c0.057-0.01,0.091,0.014,0.096,0.043
		c0.002,0.013,0.004,0.027-0.02,0.062c-0.012,0.017-0.023,0.033-0.018,0.062l-0.011-0.056c-0.004-0.029-0.038-0.053-0.099-0.058
		c-0.028,0.005-0.055,0.024-0.068,0.026C39.561,59.602,39.601,59.582,39.659,59.571z M39.422,59.48
		c0.002,0.014,0.019,0.025,0.033,0.023C39.412,59.51,39.396,59.498,39.422,59.48z M39.356,60.196l0.029-0.005
		c0.027-0.006,0.025-0.019,0.039-0.021l0.029-0.005c0.014-0.003,0.04-0.021,0.052-0.039l-0.059,0.084l0.002,0.015
		c0.005,0.028,0.036,0.037,0.081,0.045l-0.023,0.033l-0.015,0.003c0,0,0.003,0.015-0.025,0.019l-0.17,0.03l-0.035-0.023
		C39.281,60.268,39.316,60.218,39.356,60.196z M39.183,60.388l0.044,0.08l-0.085,0.015c-0.013,0.017-0.027,0.019-0.059,0.01
		C39.08,60.464,39.118,60.428,39.183,60.388z M39.06,59.851c0.041-0.022,0.056-0.025,0.032,0.009
		c-0.024,0.033-0.051,0.054-0.048,0.067C39.035,59.87,39.046,59.853,39.06,59.851z M37.977,68.47l-0.143,0.024l-0.015-0.085
		l0.185-0.032C37.979,68.397,37.97,68.428,37.977,68.47z M38.445,68.462l0.156-0.027l0.011,0.057l-0.156,0.027L38.445,68.462z
		 M39.06,64.404c-0.04,0.021-0.082,0.03-0.125,0.037c-0.031-0.01-0.058,0.01-0.063,0.055c-0.018-0.011-0.034-0.022-0.054-0.049
		l0.038-0.036C38.856,64.411,38.99,64.417,39.06,64.404z M38.973,64.068c-0.004-0.015,0.011-0.018,0.025-0.021l0.015-0.003
		l0.03,0.011c-0.026,0.019-0.04,0.021-0.04,0.021C38.994,64.107,38.978,64.096,38.973,64.068z M39.352,65.147
		c-0.029,0.005-0.058,0.01-0.089,0l0.019-0.061C39.313,65.095,39.347,65.118,39.352,65.147z M39.289,65.04l0.021-0.047l0.086-0.016
		c0.003,0.029-0.008,0.046-0.022,0.048L39.289,65.04z M39.322,65.225l0.032,0.024c0.015-0.003,0.031,0.009,0.034,0.022l-0.098,0.032
		c-0.029,0.005-0.055,0.024-0.095,0.046l-0.081-0.045c0.015-0.002,0.025-0.019,0.025-0.019s0.027-0.021,0.055-0.024
		C39.252,65.252,39.294,65.245,39.322,65.225z M39.222,65.419l-0.037,0.035l-0.072,0.013l-0.009-0.057L39.222,65.419z
		 M38.997,65.811l-0.009-0.057c-0.003-0.015-0.006-0.029,0.009-0.031l0.034-0.05c0.019,0.012,0.021,0.025,0.011,0.057
		c-0.013,0.017,0.008,0.042,0.026,0.068L38.997,65.811z M39.054,65.888l-0.042,0.008l-0.01-0.058l0.041-0.008L39.054,65.888z
		 M39.067,65.623l-0.159,0.013c0.011-0.017,0.023-0.034,0.021-0.048l0.159-0.014C39.091,65.588,39.082,65.621,39.067,65.623z
		 M38.965,65.464c0.058-0.01,0.089-0.002,0.12,0.007c-0.023,0.035-0.053,0.039-0.082,0.045L38.965,65.464z M39.121,65.848
		c0.015-0.003,0.026-0.021,0.07-0.027l0.002,0.015c0.002,0.015,0.005,0.028,0.018,0.025l-0.094,0.046
		c-0.017-0.012-0.017-0.012-0.02-0.026c-0.014,0.003-0.018-0.011-0.019-0.025L39.121,65.848z M39.031,65.334l-0.009-0.057
		c-0.007-0.043,0.019-0.063,0.062-0.07l0.028,0.084L39.031,65.334z M39.016,65.161l-0.043,0.007c-0.029,0.006-0.073,0-0.138-0.033
		l-0.013-0.072c-0.008-0.042,0.003-0.147,0.074-0.159c0.029-0.006,0.046,0.007,0.06,0.005c0.018,0.011,0.034,0.022,0.065,0.032
		l0.032,0.186L39.016,65.161z M38.85,65.219l0.071-0.013c0.003,0.015,0.019,0.025,0.035,0.038l-0.018,0.062l-0.131,0.009
		C38.804,65.301,38.815,65.269,38.85,65.219z M38.804,65.712l-0.081-0.045l0.098-0.032c0.002,0.015,0.038,0.052,0.076,0.104
		C38.853,65.748,38.823,65.739,38.804,65.712z M38.859,66.541c0.005,0.027,0.021,0.039,0.007,0.042l0.009,0.043
		c-0.028,0.004-0.06-0.005-0.075-0.017C38.799,66.609,38.817,66.547,38.859,66.541z M38.728,64.859c0,0-0.019-0.026-0.023-0.055
		c-0.031-0.01-0.021-0.04,0.03-0.079c0.048,0.021,0.069,0.062,0.074,0.09C38.797,64.833,38.772,64.851,38.728,64.859z
		 M38.701,64.703l-0.003-0.015c0.015-0.003,0.015-0.003,0.026-0.021c0.017,0.013,0.017,0.013,0.031,0.011l0.018,0.012
		C38.749,64.722,38.735,64.725,38.701,64.703z M38.698,62.323c-0.002-0.014,0.013-0.017,0.024-0.033s0.022-0.033,0.037-0.036
		c0.021,0.04,0.024,0.055,0.013,0.072L38.698,62.323z M38.693,61.619l-0.028,0.005c-0.005-0.028,0.008-0.045,0.021-0.048
		c0.003,0.015,0.005,0.028,0.02,0.026L38.693,61.619z M38.683,65.013l0.038,0.053c-0.026,0.019-0.056,0.023-0.1,0.018
		C38.618,65.069,38.668,65.016,38.683,65.013z M38.66,65.811l-0.013,0.017c-0.012,0.016-0.012,0.016-0.006,0.045l-0.091-0.015
		c-0.002-0.013,0.009-0.029,0.034-0.049C38.584,65.809,38.614,65.804,38.66,65.811z M38.677,66.425
		c-0.009,0.03-0.022,0.032-0.02,0.046c-0.013,0.018-0.027,0.02-0.069,0.027l-0.025-0.054c0.027-0.02,0.053-0.039,0.067-0.042
		L38.677,66.425z M38.532,65.245c-0.003-0.013,0.006-0.044,0.061-0.068c0.02,0.026,0.021,0.041,0.011,0.056L38.532,65.245z
		 M38.617,66.156c0.008,0.043-0.016,0.076-0.058,0.098c-0.032-0.023-0.038-0.052-0.028-0.083L38.617,66.156z M38.583,69.084
		l-0.009-0.058l0.112-0.02l0.012,0.057L38.583,69.084z M38.824,68.779c0.007,0.042-0.002,0.073-0.002,0.073
		c-0.045-0.006-0.119-0.008-0.204,0.007l-0.022-0.129l0.242-0.042C38.838,68.703,38.844,68.731,38.824,68.779z M38.747,68.336
		l-0.01-0.057l0.156-0.027l0.01,0.057L38.747,68.336z M38.878,66.228c-0.015,0.003-0.015,0.003-0.03-0.009l-0.015,0.002
		l-0.011-0.058l0.028-0.005c0,0,0.015-0.002,0.013-0.017l0.028-0.005l0.026,0.069C38.908,66.223,38.893,66.225,38.878,66.228z
		 M38.926,66.411l0.07-0.012l-0.009,0.03l-0.061-0.005L38.926,66.411z M38.988,67.692l-0.016-0.085l0.085-0.015l-0.046,0.066
		C38.999,67.675,38.984,67.677,38.988,67.692z M39.134,68.709c-0.015-0.086-0.049-0.196-0.108-0.289
		c0.025-0.02,0.078-0.058,0.106-0.063C39.216,68.416,39.223,68.635,39.134,68.709z M39.131,68.019l-0.012-0.071l0.114-0.02
		L39.246,68L39.131,68.019z M39.244,65.959l0.085-0.016l0.01,0.058l-0.086,0.015L39.244,65.959z M39.335,67.587
		c-0.043,0.008-0.074-0.001-0.078-0.029l0.085-0.016c-0.014,0.003-0.014,0.003-0.012,0.017L39.335,67.587z M39.348,65.719
		l-0.011-0.057l0.073-0.013C39.416,65.679,39.391,65.712,39.348,65.719z M39.216,64.964l-0.085,0.016
		c-0.017-0.013-0.046-0.007-0.077-0.018c0.013-0.015,0.037-0.05,0.063-0.069l0.092-0.061l-0.051-0.034
		c-0.015,0.003-0.03-0.009-0.032-0.023l0.085-0.015c0.031,0.009,0.051,0.034,0.059,0.077c0.014-0.002,0.025-0.019,0.023-0.033
		c-0.003-0.014,0.009-0.03,0.036-0.035l0.072-0.013l0.021,0.114C39.247,64.974,39.246,64.96,39.216,64.964z M40.212,67.14
		l-0.033-0.021l-0.002-0.015l0.027-0.005c-0.002-0.015,0.013-0.017,0.026-0.02C40.264,67.103,40.253,67.12,40.212,67.14z
		 M40.889,68.155c-0.01,0.03-0.022,0.048-0.02,0.063l-0.198,0.034c0,0-0.021-0.026-0.027-0.068
		c-0.008-0.043-0.015-0.086-0.006-0.117l0.171-0.03l0.083,0.059C40.896,68.109,40.901,68.137,40.889,68.155z M43.25,68.227
		c0.015-0.002,0.027-0.019,0.021-0.047l0.059-0.01C43.307,68.203,43.28,68.222,43.25,68.227z M43.18,67.476l0.149,0.02l0.007,0.041
		l-0.177,0.002L43.18,67.476z M41.564,66.715l0.016,0.012l-0.009,0.03l-0.029,0.005L41.564,66.715z M41.529,68.292l-0.1,0.018
		l-0.004-0.029l0.099-0.018L41.529,68.292z M41.497,67.255c0,0,0.002,0.014-0.011,0.031l-0.021,0.047
		c-0.043,0.008-0.076-0.016-0.083-0.058L41.497,67.255z M41.004,66.885c0.019,0.012,0.021,0.025,0.035,0.024
		c0.015-0.003,0.015-0.003,0.016,0.012l-0.054,0.024L41.004,66.885z M40.959,67.041c0.017,0.011,0.019,0.025,0.019,0.025
		c-0.012,0.018-0.009,0.032-0.006,0.046L40.9,67.125C40.895,67.095,40.918,67.062,40.959,67.041z M40.86,67.395l0.027-0.004
		l0.008,0.041l-0.043,0.009L40.86,67.395z M40.72,66.846c0.028-0.004,0.051-0.038,0.049-0.052l0.041,0.066
		c0,0-0.012,0.017-0.01,0.031c0.003,0.015-0.01,0.03-0.021,0.048l-0.07,0.013c-0.004-0.015-0.022-0.042-0.053-0.05
		C40.67,66.9,40.682,66.883,40.72,66.846z M40.684,67.059c0.001,0.015,0.004,0.029-0.011,0.031c0.003,0.014,0.005,0.028-0.008,0.03
		c0,0,0.002,0.015-0.013,0.018l-0.045-0.094C40.635,67.039,40.666,67.048,40.684,67.059z M40.424,67.515l0.034,0.023
		c0,0,0.002,0.015-0.013,0.018s-0.011,0.017-0.011,0.017l-0.039-0.053L40.424,67.515z M40.33,66.973l-0.085,0.015l-0.006-0.027
		l0.087-0.015L40.33,66.973z M40.255,66.884l0.006,0.028l-0.114,0.021l-0.005-0.029L40.255,66.884z M40.02,67.469l0.053,0.049
		l-0.028,0.004l-0.039-0.052L40.02,67.469z M39.958,68.125l0.013,0.071l-0.114,0.02l-0.013-0.071L39.958,68.125z M39.536,68.566
		c0.025-0.02,0.054-0.024,0.08-0.043c0.041-0.021,0.098-0.032,0.155-0.042c-0.013,0.018-0.038,0.035-0.062,0.07
		c-0.013,0.017-0.059,0.083-0.123,0.139c-0.006-0.029-0.089-0.087-0.12-0.098C39.496,68.588,39.507,68.571,39.536,68.566z
		 M42.025,64.476l0.009,0.042l-0.173,0.03l-0.007-0.043L42.025,64.476z M40.321,63.29l0.057-0.011l-0.014,0.09l-0.062-0.018
		L40.321,63.29z M40.301,63.175l-0.026,0.018l-0.003-0.013L40.301,63.175z M40.212,63.175l0.003,0.014l-0.014,0.003L40.212,63.175z
		 M40.084,63.785l-0.115,0.02c0,0,0.013-0.017,0.007-0.045c0.009-0.03,0.009-0.03,0.005-0.059l0.114-0.02l0.01,0.056
		C40.107,63.751,40.111,63.766,40.084,63.785z M40.099,63.622L40,63.638c-0.02-0.025-0.036-0.037-0.039-0.052
		c0,0,0.015-0.002,0.026-0.02c0.031,0.01,0.033,0.024,0.065,0.033L40.099,63.622z M40.007,63.343
		c0.047,0.021,0.043,0.08,0.003,0.102l-0.081-0.043L40.007,63.343z M39.477,63.597l-0.015-0.086
		C39.528,63.544,39.533,63.572,39.477,63.597z M39.32,63.699c-0.002-0.015,0.011-0.018,0.011-0.018l0.027-0.02
		c0.016,0.012,0.047,0.021,0.09,0.014l0.012,0.072l-0.027,0.005L39.42,63.77c-0.028,0.005-0.061-0.006-0.074-0.003L39.28,63.72
		C39.305,63.701,39.32,63.699,39.32,63.699z M39.311,64.581l0.05,0.036c-0.039,0.021-0.064,0.04-0.094,0.046
		c-0.057,0.01-0.085,0.015-0.112-0.055L39.311,64.581z M39.152,64.504c-0.045,0.082-0.077,0.147-0.039,0.199l-0.123,0.052
		c-0.02-0.027-0.011-0.058-0.003-0.103c-0.018-0.012-0.077-0.017-0.139-0.035c0.025-0.02,0.053-0.039,0.106-0.063
		c0.038-0.035,0.066-0.04,0.08-0.042l0.058-0.011C39.124,64.51,39.124,64.51,39.152,64.504z M39.085,63.034l0.013,0.071l-0.07,0.012
		l-0.013-0.07L39.085,63.034z M38.971,63.303l0.013-0.017c0.027-0.005,0.045,0.006,0.059,0.004c0.018,0.012,0.045,0.007,0.06,0.004
		l0.018,0.1c-0.013,0.018-0.04,0.022-0.054,0.024c-0.071,0.013-0.12-0.008-0.127-0.051C38.933,63.339,38.946,63.322,38.971,63.303z
		 M39.028,63.792l0.085-0.015l0.008,0.044l-0.042,0.007c-0.059,0.011-0.101,0.018-0.135-0.006c-0.03-0.01-0.047-0.021-0.053-0.05
		C38.92,63.768,39.011,63.782,39.028,63.792z M38.881,64.303c0.018,0.011,0.033,0.023,0.062,0.019
		c-0.022,0.034-0.052,0.039-0.094,0.046c-0.015,0.003-0.043,0.008-0.084,0.029c-0.003-0.014,0.005-0.061,0.028-0.093l0.07-0.013
		L38.881,64.303z M38.842,62.563l-0.06-0.005l-0.002-0.015l0.073,0.002L38.842,62.563z M38.616,59.826l0.029-0.005l-0.003-0.014
		l0.199-0.035l0.008,0.043l-0.187,0.032l-0.011,0.017l-0.1,0.018C38.549,59.867,38.576,59.848,38.616,59.826z M38.501,59.507
		l0.007,0.043l-0.027,0.006l-0.009-0.043L38.501,59.507z M38.506,64.515c0,0,0.017,0.012,0.046,0.008
		c-0.025,0.019-0.04,0.021-0.035,0.05c-0.028,0.005-0.04,0.021-0.055,0.024l-0.048-0.021c-0.002-0.014,0.007-0.046,0.032-0.064
		C38.476,64.505,38.493,64.518,38.506,64.515z M38.418,59.875l0.005,0.028l-0.042,0.008l-0.005-0.029L38.418,59.875z M38.254,68.716
		l0.028-0.005l0.01,0.057l-0.028,0.004L38.254,68.716l-0.129,0.022l-0.009-0.058l0.128-0.022L38.254,68.716z M38.115,59.899
		l0.008,0.042l-0.3,0.052l-0.007-0.041L38.115,59.899z M37.886,60.363c0.004,0.015-0.011,0.017-0.023,0.034
		c-0.011,0.017-0.023,0.033-0.02,0.048l-0.058,0.011l-0.004-0.029c-0.019-0.027-0.022-0.04-0.024-0.055L37.886,60.363z
		 M37.844,68.729c-0.022,0.033-0.129,0.095-0.17,0.029L37.844,68.729z M37.069,61.065l0.014-0.003l-0.009,0.031l-0.031-0.01
		L37.069,61.065z"/>
	<path fill-rule="evenodd" clip-rule="evenodd" fill="#F9B43B" d="M55.84,45.964c-0.188,0.14-0.397,0.254-0.605,0.361
		c-0.483,0.25-0.786,0.069-0.816-0.479c-0.005-0.097-0.01-0.192-0.014-0.275c-0.153-0.046-0.303-0.144-0.395-0.105
		c-0.135,0.056-0.228,0.212-0.338,0.323c0.368,0.353,0.253,0.728,0.057,1.111c-0.017,0.032,0.034,0.102,0.087,0.245
		c0.088-0.23,0.138-0.365,0.225-0.596c0.14,0.216,0.23,0.364,0.329,0.507c0.187,0.267,0.559,0.273,0.653-0.011
		c0.229-0.686,0.75-0.828,1.447-0.817C56.348,45.834,56.176,45.716,55.84,45.964z"/>
	<path fill-rule="evenodd" clip-rule="evenodd" fill="#F9B43B" d="M56.923,33.42c0.564-0.558,0.751-1.271,0.835-2.108
		c-0.383,0.291-0.867,0.303-0.954,0.835c-0.055,0.339-0.215,0.662-0.303,0.999c-0.024,0.094,0.009,0.28,0.064,0.302
		C56.669,33.488,56.854,33.488,56.923,33.42z"/>
	<path fill-rule="evenodd" clip-rule="evenodd" fill="#F9B43B" d="M60.898,40.884c0.339-0.202,0.68-0.404,0.918-0.546
		c-0.165-0.2-0.165-0.2,0.372-0.92c-0.179-0.271-0.399-0.501-0.629-0.084c-0.272,0.494-0.598,0.57-1.093,0.287
		c0.158,0.303,0.315,0.608,0.474,0.913C60.926,40.649,60.913,40.767,60.898,40.884z"/>
	<path fill-rule="evenodd" clip-rule="evenodd" fill="#F9B43B" d="M64.643,41.24c0.313-0.055,0.73-0.814,0.682-1.14
		c-0.025-0.164,0.043-0.354,0.106-0.517c0.046-0.115,0.154-0.205,0.234-0.307c-0.051-0.038-0.101-0.075-0.15-0.114
		c-0.264,0.332-0.525,0.664-0.816,1.031c-0.076,0.227-0.182,0.528-0.276,0.832c-0.016,0.049,0.001,0.135,0.037,0.166
		C64.501,41.231,64.584,41.25,64.643,41.24z"/>
	<path fill-rule="evenodd" clip-rule="evenodd" fill="#F9B43B" d="M64.124,41.234c-0.415,0.105-0.785,0.198-1.152,0.29
		c-0.01,0.037-0.02,0.074-0.03,0.111c0.408,0.075,0.816,0.151,1.224,0.226C63.67,41.674,64.185,41.354,64.124,41.234z"/>
	<path fill-rule="evenodd" clip-rule="evenodd" fill="#F9B43B" d="M54.115,39.323c-0.028,0.042-0.056,0.082-0.083,0.124
		c0.077,0.237,0.155,0.475,0.294,0.9c0.171-0.264,0.392-0.511,0.354-0.563C54.538,39.594,54.309,39.471,54.115,39.323z"/>
	<path fill-rule="evenodd" clip-rule="evenodd" fill="#F9B43B" d="M60.025,42.176c-0.434-0.177-0.866-0.354-1.3-0.531
		c-0.029,0.082-0.059,0.165-0.089,0.246c0.438,0.161,0.878,0.322,1.316,0.482C59.976,42.308,60,42.242,60.025,42.176z"/>
	<path fill-rule="evenodd" clip-rule="evenodd" fill="#F9B43B" d="M55.936,41.023c0.05-0.048,0.097-0.097,0.146-0.146
		c-0.273-0.246-0.548-0.492-0.821-0.739c-0.046,0.046-0.091,0.093-0.136,0.139C55.268,40.653,55.628,40.813,55.936,41.023z"/>
	<path fill-rule="evenodd" clip-rule="evenodd" fill="#F9B43B" d="M55.07,37.134c0.03-0.01-0.013-0.24-0.021-0.348
		c-0.358,0.198-0.634,0.351-0.928,0.513C54.516,37.704,54.77,37.237,55.07,37.134z"/>
	<path fill-rule="evenodd" clip-rule="evenodd" fill="#F9B43B" d="M53.499,49.32c0.059,0.006,0.118,0.01,0.177,0.015
		c0.04-0.511,0.081-1.021,0.12-1.532c-0.062,0.002-0.123,0.002-0.185,0.002C53.573,48.31,53.537,48.815,53.499,49.32z"/>
	<path fill-rule="evenodd" clip-rule="evenodd" fill="#F9B43B" d="M65.977,37.634c-0.018-0.402-0.036-0.806-0.056-1.208
		c-0.055,0.005-0.108,0.01-0.163,0.016c0.031,0.402,0.064,0.804,0.096,1.206C65.896,37.643,65.937,37.639,65.977,37.634z"/>
	<path fill-rule="evenodd" clip-rule="evenodd" fill="#F9B43B" d="M2.233,38.421c-0.18,0.133-0.379,0.243-0.578,0.345
		c-0.459,0.238-0.749,0.066-0.778-0.458c-0.005-0.091-0.01-0.183-0.013-0.262c-0.146-0.044-0.289-0.138-0.376-0.101
		c-0.128,0.053-0.217,0.201-0.322,0.308c0.351,0.336,0.242,0.694,0.054,1.06c-0.016,0.032,0.033,0.097,0.083,0.234
		c0.083-0.22,0.131-0.348,0.214-0.568c0.133,0.205,0.219,0.347,0.313,0.482c0.178,0.255,0.533,0.261,0.624-0.011
		c0.219-0.652,0.717-0.79,1.381-0.779C2.719,38.296,2.554,38.184,2.233,38.421z"/>
	<path fill-rule="evenodd" clip-rule="evenodd" fill="#F9B43B" d="M9.036,34.184c-0.009,0.036-0.02,0.071-0.029,0.106
		c0.389,0.071,0.778,0.144,1.167,0.215c-0.471-0.178,0.021-0.483-0.039-0.597C9.739,34.008,9.387,34.098,9.036,34.184z"/>
	<path fill-rule="evenodd" clip-rule="evenodd" fill="#F9B43B" d="M1.126,32.524c-0.135-0.181-0.353-0.299-0.539-0.439
		c-0.026,0.039-0.052,0.078-0.079,0.118c0.074,0.227,0.148,0.454,0.281,0.858C0.952,32.81,1.163,32.574,1.126,32.524z"/>
	<path fill-rule="evenodd" clip-rule="evenodd" fill="#F9B43B" d="M2.532,43.771c-0.037,0.038-0.007,0.164,0.023,0.239
		c0.068,0.17,0.155,0.332,0.268,0.565c0.076-0.095,0.217-0.198,0.202-0.266c-0.047-0.209-0.147-0.407-0.25-0.598
		C2.763,43.689,2.583,43.717,2.532,43.771z"/>
	<path fill-rule="evenodd" clip-rule="evenodd" fill="#F9B43B" d="M2.326,33.707c0.046-0.045,0.091-0.093,0.138-0.139
		c-0.261-0.235-0.522-0.47-0.783-0.706c-0.043,0.044-0.087,0.089-0.129,0.133C1.688,33.353,2.032,33.506,2.326,33.707z"/>
	<path fill-rule="evenodd" clip-rule="evenodd" fill="#F9B43B" d="M1.498,29.997c0.03-0.01-0.012-0.23-0.019-0.332
		c-0.342,0.189-0.606,0.334-0.885,0.489C0.97,30.54,1.212,30.094,1.498,29.997z"/>
	<path fill-rule="evenodd" clip-rule="evenodd" fill="#F9B43B" d="M0,41.622c0.056,0.005,0.112,0.01,0.168,0.014
		c0.038-0.487,0.076-0.974,0.115-1.461c-0.059,0.001-0.118,0.001-0.177,0.001C0.071,40.659,0.036,41.14,0,41.622z"/>
	<path fill-rule="evenodd" clip-rule="evenodd" fill="#F9B43B" d="M17.776,48.678c-0.135,0.245-0.288,0.188-0.473,0.063
		c-0.139-0.09-0.295-0.154-0.444-0.229c-0.018,0.036-0.037,0.072-0.056,0.108c0.334,0.265,0.668,0.528,1.005,0.796
		c0.107-0.17,0.184-0.304,0.272-0.431c0.19-0.272,0.386-0.542,0.582-0.811c0.063-0.086,0.119-0.209,0.205-0.24
		c0.484-0.176,0.885-0.01,1.168,0.528c0.147-0.107,0.358-0.182,0.403-0.314c0.057-0.166-0.005-0.383-0.046-0.569
		c-0.028-0.131-0.107-0.249-0.164-0.372c-0.036,0.018-0.073,0.036-0.108,0.055c0.005,0.21,0.008,0.421,0.012,0.604
		c-0.522,0.117-0.53-0.777-1.039-0.386c-0.278,0.214-0.856,0.025-0.792,0.75c-0.143-0.241-0.212-0.358-0.281-0.475
		c-0.041,0.019-0.083,0.04-0.124,0.059c0.079,0.148,0.167,0.291,0.23,0.446c0.035,0.083,0.051,0.188,0.032,0.272
		c-0.009,0.035-0.126,0.048-0.193,0.071C17.901,48.627,17.801,48.632,17.776,48.678z"/>
	<path fill-rule="evenodd" clip-rule="evenodd" fill="#F9B43B" d="M26.635,41.865c0.494-0.489,0.657-1.113,0.731-1.846
		c-0.335,0.254-0.76,0.266-0.836,0.731c-0.049,0.297-0.188,0.58-0.265,0.875c-0.021,0.083,0.008,0.246,0.056,0.264
		C26.412,41.925,26.574,41.925,26.635,41.865z"/>
	<path fill-rule="evenodd" clip-rule="evenodd" fill="#F9B43B" d="M24.102,47.142c0.068,0.209,0.137,0.417,0.258,0.788
		c0.15-0.231,0.343-0.447,0.309-0.492c-0.124-0.166-0.323-0.274-0.494-0.403C24.15,47.071,24.126,47.106,24.102,47.142z"/>
	<path fill-rule="evenodd" clip-rule="evenodd" fill="#F9B43B" d="M25.771,48.524c0.042-0.042,0.084-0.086,0.126-0.128
		c-0.24-0.216-0.479-0.433-0.719-0.648c-0.04,0.041-0.079,0.082-0.119,0.122C25.185,48.199,25.501,48.338,25.771,48.524z"/>
	<path fill-rule="evenodd" clip-rule="evenodd" fill="#F9B43B" d="M24.993,44.813c-0.314,0.174-0.556,0.307-0.812,0.448
		c0.345,0.355,0.568-0.054,0.83-0.144C25.038,45.109,25,44.907,24.993,44.813z"/>
	<path fill-rule="evenodd" clip-rule="evenodd" fill="#F9B43B" d="M34.515,44.498c-0.048,0.005-0.095,0.009-0.143,0.014
		c0.028,0.352,0.056,0.703,0.084,1.057c0.036-0.004,0.072-0.009,0.108-0.013C34.547,45.203,34.531,44.849,34.515,44.498z"/>
	<path fill-rule="evenodd" clip-rule="evenodd" fill="#F9B43B" d="M38.982,29.706c-0.148,0.034-0.295,0.051-0.44,0.06
		c0.144,0.009,0.285,0.018,0.429,0.027C38.974,29.764,38.978,29.735,38.982,29.706z"/>
	<path fill-rule="evenodd" clip-rule="evenodd" fill="#F9B43B" d="M39.704,29.839c0.152,0.01,0.304,0.02,0.456,0.029
		c-0.021,0.183-0.04,0.364-0.061,0.547c-0.195,0.013-0.393,0.034-0.589,0.054c-0.361,1.195-0.719,2.391-1.1,3.575
		c0.051-0.461,0.115-0.934,0.182-1.416l0.119-0.896c0.051-0.403,0.109-0.805,0.162-1.208c-0.588,0.034-1.167-0.004-1.712-0.328
		c0.018-0.171,0.036-0.344,0.055-0.515c0.153,0.009,0.306,0.02,0.459,0.029c-0.956-0.158-1.881-0.528-2.792-0.191
		c-0.014,0.101-0.027,0.202-0.041,0.304c0.194,0.008,0.385,0.027,0.568,0.076c0.168,0.045,0.114,0.928,0.194,1.763
		c-0.364-0.241-0.657-0.435-0.925-0.612c-0.007,0.056-0.015,0.111-0.022,0.167l-0.114,0.859c-0.182,1.333-0.37,2.711-0.311,4.146
		l0.005,0.138c0.044,1.185,0.149,3.959,2.564,4.553c0.238,0.059,0.483,0.088,0.729,0.088c2.265,0,3.657-2.351,4.076-3.594
		c1.391-4.123,2.609-8.356,3.789-12.451l0.377-1.31c0.335-1.158,0.632-2.328,0.927-3.497c0.314-1.238,0.639-2.518,1.002-3.741
		c0.354-1.187,0.578-1.563,0.706-1.671c0.566-0.468,1.17-0.742,1.449-0.809c0.248,0.182,0.599,0.626,0.656,0.842
		c0.114,0.671,0.114,1.458,0.026,2.348c0.061,1.973,0.101,1.982,0.733,2.12c-0.265,0.692-0.64,1.679-1.016,2.666
		c-0.159-0.26-0.32-0.52-0.48-0.78c-0.41,1.851-0.825,3.691-1.246,5.522c0.68-0.196,1.358-0.393,2.037-0.589
		c0.058,0.177,0.118,0.355,0.176,0.532c-0.793,0.261-1.585,0.522-2.379,0.783c-0.091,0.393-0.183,0.794-0.271,1.184
		c-0.821,3.564-1.672,7.249-2.441,10.897c-0.255,1.206-0.471,2.422-0.673,3.639c0.949,1.015,1.854,0.877,2.435-0.414
		c0.257-0.572,0.505-1.156,0.669-1.758c0.076-0.282,0.174-0.485,0.288-0.63c0.381-0.032,0.702,0.156,0.954,0.572
		c-1.14,1.004-1.734,2.09-1.162,3.674c0.271,0.753-0.519,1.355-1.35,1.105c-0.443-0.135-0.878-0.296-1.526-0.514
		c0.2,0.626,0.316,0.988,0.516,1.614c-0.349-0.21-0.569-0.269-0.59-0.368c-0.108-0.546-0.256-1.054-0.53-1.449
		c-0.264,1.754-0.496,3.503-0.723,5.223l-0.015,0.108c-0.216,1.641-0.666,5.055,2.623,7.022c0.947,0.566,1.948,0.853,2.974,0.853
		c1.533,0,3.026-0.62,4.567-1.897c1.26-1.048,2.372-2.219,3.447-3.351c0.256-0.27,0.504-0.527,0.752-0.785
		c0.089,0.021,0.167,0.049,0.269,0.063c-0.066-0.053-0.124-0.098-0.188-0.147c0.428-0.442,0.852-0.875,1.289-1.286
		c0.296-0.279,0.591-0.563,0.886-0.849c1.289-1.242,2.507-2.416,3.854-3.164c0.461-0.256,1.108-0.426,1.861-0.51
		c-0.848-0.794-1.696-1.589-2.447-2.293c-0.332,0.338-0.64,0.648-0.947,0.958c-0.154-0.497-0.451-0.999-0.43-1.489
		c0.004-0.088,0.02-0.176,0.029-0.265c-0.016,0.008-0.033,0.015-0.049,0.024c-1.816,1.008-3.288,2.426-4.709,3.797
		c-0.018,0.018-0.035,0.033-0.053,0.05c0,0-0.001-0.001-0.001-0.002c-0.004,0.006-0.007,0.01-0.013,0.015
		c-0.261,0.253-0.522,0.505-0.785,0.753c-0.801,0.756-1.555,1.548-2.282,2.314c-1.039,1.096-2.021,2.13-3.095,3.021
		c-0.766,0.634-1.423,0.955-1.957,0.955c-0.281,0-0.568-0.089-0.877-0.272c-0.726-0.435-0.936-0.951-0.667-2.981l0.014-0.108
		c0.428-3.248,0.879-6.596,1.531-9.825c0.137-0.079,0.271-0.154,0.307-0.262c0.066-0.189-0.005-0.436-0.052-0.65
		c-0.008-0.041-0.027-0.079-0.044-0.118c0.736-3.458,1.54-6.96,2.322-10.352c0.719-3.12,1.463-6.346,2.151-9.536
		c0.493-2.291,0.596-4.207,0.313-5.856c-0.278-1.63-1.901-3.742-3.786-4.168c-0.256-0.057-0.524-0.087-0.8-0.087
		c-1.874,0-3.649,1.348-4.149,1.76c-1.141,0.942-1.641,2.382-2.021,3.658c-0.388,1.303-0.722,2.624-1.047,3.902
		c-0.284,1.126-0.569,2.252-0.891,3.367l-0.378,1.311C40.897,25.809,40.308,27.823,39.704,29.839z M48.991,40.042
		c0.152,0.022,0.32,0.086,0.508,0.187c0.001,0.014,0.001,0.03,0.002,0.043C49.259,40.326,49.116,40.192,48.991,40.042z"/>
	<path fill-rule="evenodd" clip-rule="evenodd" fill="#F9B43B" d="M72.65,44.709c-0.668-1.501-2.167-2.451-4.112-2.605
		c-0.392-0.031-0.796-0.048-1.206-0.048c-0.792,0-1.791,0.07-2.809,0.309c0.971,1.019,1.464,2.347,1.758,3.841
		c0.333-0.038,0.68-0.063,1.051-0.063c0.301,0,0.598,0.013,0.883,0.037c0.466,0.036,0.676,0.167,0.694,0.172
		c0.01,0.062-0.031,0.326-0.342,0.731c-0.803,1.043-1.725,2.014-2.7,3.04c-0.967,1.017-1.967,2.069-2.872,3.227
		c-1.568,2.007-3.102,4.081-4.583,6.085c-2.118,2.864-4.308,5.827-6.602,8.587c-2.664,3.204-5.745,6.353-9.419,9.628
		c-3.683,3.284-8.332,4.632-13.685,3.977c-4.86-0.595-9.856-1.396-14.848-2.383c-3.111-0.614-5.078-2.685-6.188-6.513
		c-1.678-5.791-1.573-11.696-1.209-17.216c0.191-2.904,0.419-5.808,0.648-8.711c0.37-4.69,0.748-9.535,0.961-14.333
		c0.06-0.083,0.129-0.176,0.218-0.296c-0.06-0.092-0.126-0.177-0.195-0.233c0.113-2.831,0.032-5.676-0.061-8.444
		c-0.23-0.542-0.503-1.061-0.917-1.5c-0.229-0.244-0.086-0.836-0.114-1.268c0.146-0.038,0.292-0.075,0.438-0.113
		c0.174,0.229,0.35,0.46,0.524,0.69c-0.05-1.581-0.093-3.177-0.086-4.748c0.007-1.734,0.261-2.032,0.312-2.074
		c0,0,0.092-0.057,0.384-0.057c0.407,0.001,0.675,0.001,0.927,2.288c0.282,2.558,0.547,5.116,0.808,7.675
		c0.707,0.931,1.426,1.877,2.176,2.865c-0.223,0.3-0.581,0.782-0.938,1.264c-0.304-0.278-0.6-0.566-0.904-0.842
		c0.036,0.354,0.072,0.708,0.108,1.063c0.122,1.209,0.245,2.418,0.368,3.628c-0.143,0.181-0.28,0.354-0.435,0.55
		c-0.073,0.216-0.173,0.504-0.264,0.793c-0.015,0.047,0.001,0.129,0.034,0.159c0.042,0.037,0.12,0.055,0.176,0.045
		c0.204-0.036,0.451-0.383,0.574-0.7c0.057,0.559,0.112,1.117,0.17,1.676c0.016,0.151,0.027,0.305,0.039,0.459
		c0.056,0.729,0.125,1.635,0.544,2.509l0.099,0.211c0.407,0.88,1.255,2.711,3.208,2.711l0.306-0.017
		c1.584-0.175,2.668-1.6,2.83-3.714c0.285-3.682,0.538-7.366,0.792-11.049c0.256-3.727,0.512-7.453,0.802-11.178
		c0.183-2.371,0.609-4.836,0.985-7.011c0.319-1.844,0.712-1.858,1.278-1.858c0.004,0,0.009,0,0.013,0
		c0.347,0.003,0.622,0.006,0.677,1.506c0.211,5.68,0.2,11.449,0.189,16.538c-0.004,2.014-0.076,4.078-0.146,6.075
		c-0.043,1.242-0.086,2.485-0.116,3.78c-0.017,0.712-0.041,1.687,0.469,2.597l0.092,0.17c0.179,0.333,0.454,0.829,0.857,1.272
		c0.022-0.048,0.044-0.097,0.067-0.145c0.368,0.189,0.782,0.323,1.095,0.58c0.2,0.165,0.418,0.336,0.618,0.519
		c0.111,0.013,0.217,0.037,0.336,0.037l0.238-0.011c0.646-0.057,2.207-0.464,2.769-3.001c0.461-2.093,0.894-4.323,1.399-7.232
		c0.032-0.186,0.063-0.371,0.096-0.557c-0.649-0.553-1.131-1.319-1.103-2.025c0.442,0.363,0.858,0.706,1.271,1.045
		c0.142-0.822,0.283-1.645,0.424-2.467c-0.173,0.583-0.418,1.113-1.378,0.988c0.346-0.825,0.671-1.602,1.094-2.61
		c0.12,0.131,0.335,0.331,0.479,0.486c0.169-0.99,0.341-1.98,0.51-2.97c0.657-3.847,1.314-7.694,1.995-11.537
		c0.284-1.607,0.606-2.856,1.015-3.929c0.371-0.975,0.887-0.975,1.081-0.975c0.066,0,0.135,0.005,0.205,0.013
		c0.318,0.041,0.798,0.101,0.969,1.332c0.137,0.98,0.16,1.799,0.072,2.505c-0.285,2.292-0.706,5.732-1.047,8.6
		c-0.171,1.439-0.322,2.734-0.425,3.67c-0.055,0.496-0.11,0.996-0.112,1.463l-0.022-0.003l-0.379,2.782
		c-0.147,1.076-0.287,2.154-0.431,3.231c0.651-0.202,1.147-0.129,1.135,0.699c-0.013,0.861,0.52,0.751,1.086,0.803
		c0.557,0.051,1.109,0.185,1.661,0.307c0.197-1.496,0.394-2.992,0.599-4.487l0.653-4.813l-0.075-0.01
		c0.288-2.539,0.863-7.301,1.414-11.738c0.132-1.065,0.105-2.234-0.08-3.571c-0.382-2.754-2.024-4.512-4.508-4.824
		C36.769,0.015,36.531,0,36.3,0c-2.21,0-4.042,1.349-4.901,3.609c-0.502,1.319-0.89,2.803-1.219,4.669
		c-0.2,1.127-0.389,2.256-0.585,3.384c0.025,0.39,0.025,0.787-0.024,1.197c-0.015,0.125-0.117,0.261-0.248,0.379
		c-0.381,2.201-0.766,4.4-1.142,6.602c-0.322,1.887-0.645,3.775-0.97,5.663c0.008-0.5,0.013-0.999,0.014-1.498
		c0.008-4.279,0.016-9.036-0.106-13.841c-0.189-0.461-0.165-0.871-0.035-1.269c-0.016-0.529-0.032-1.059-0.052-1.588
		c-0.181-4.877-3.366-5.429-4.784-5.44c-2.911,0-4.692,1.766-5.295,5.249c-0.391,2.264-0.835,4.83-1.033,7.392
		c-0.29,3.735-0.547,7.474-0.804,11.212c-0.076,1.104-0.152,2.207-0.229,3.31c-0.024-0.233-0.047-0.466-0.07-0.7
		c-0.406-4.022-0.811-8.044-1.254-12.062c-0.178-1.618-0.651-5.917-4.991-5.927c-2.169,0-4.76,1.076-4.78,6.201
		c-0.008,2.171,0.065,4.361,0.138,6.479c0.017,0.488,0.032,0.982,0.047,1.475c-0.348,0.223-0.747,0.276-0.823,0.745
		c-0.053,0.324-0.205,0.632-0.289,0.953c-0.023,0.09,0.009,0.268,0.062,0.288c0.098,0.038,0.275,0.038,0.341-0.027
		c0.421-0.416,0.618-0.925,0.724-1.507c0.071,2.321,0.113,4.675,0.015,6.971C3.8,36.765,3.411,41.705,3.035,46.483
		c-0.23,2.92-0.46,5.84-0.652,8.763c-0.123,1.868-0.21,3.854-0.216,5.897c1.2-0.289,1.64-0.983,1.416-2.325
		c-0.21-1.258,0.631-1.139,1.455-0.867c0.07,2.396,0.07,2.396,0.746,2.543c-0.264,0.693-0.64,1.679-1.015,2.666
		c-0.166-0.27-0.332-0.538-0.498-0.807c-0.702-0.316-1.404-0.633-2.105-0.95c0.003,2.158,0.121,4.385,0.408,6.635
		c0.835-0.241,1.669-0.483,2.505-0.725c0.059,0.178,0.118,0.355,0.177,0.531c-0.867,0.286-1.733,0.57-2.6,0.856
		c0.246,1.721,0.593,3.449,1.091,5.166c1.539,5.31,4.675,8.467,9.32,9.386c1.328,0.262,2.656,0.51,3.981,0.746
		c0.098-0.512,0.258-1.022,0.376-1.547c1.029,0.492,1.746,1.178,2.266,1.995c2.866,0.475,5.716,0.893,8.52,1.235
		c1.04,0.128,2.076,0.192,3.081,0.192c2.944,0,5.674-0.554,8.186-1.611c-0.315-0.171-0.654-0.3-0.984-0.445
		c0.045-0.092,0.09-0.184,0.134-0.275c0.284,0.109,0.568,0.219,1.154,0.444c-1.119-1.188,0.157-1.658,0.35-2.421
		c0.353-1.395,1.61,0.166,2.364-0.767c-0.262-0.316-0.56-0.681-0.86-1.045c0.038-0.081,0.075-0.163,0.113-0.246
		c0.271,0.139,0.575,0.236,0.805,0.426c0.334,0.273,0.744,0.566,0.874,0.938c0.104,0.295-0.163,0.72-0.271,1.114
		c-1.244-0.551-2.184-0.285-2.788,0.696c-0.108,0.175-0.037,0.469-0.027,0.707c0.005,0.165,0.017,0.329,0.023,0.493
		c1.694-0.814,3.28-1.874,4.749-3.184c2.475-2.206,4.691-4.36,6.709-6.518c-0.227-0.032-0.448-0.097-0.662-0.224
		c0.015-0.125,0.027-0.252,0.04-0.378c0.369,0.023,0.74,0.047,1.11,0.07c0.922-1.003,1.806-2.006,2.646-3.017
		c1.719-2.066,3.358-4.218,4.953-6.354c0.031-0.195,0.122-0.308,0.261-0.352c0.516-0.69,1.025-1.381,1.531-2.064
		c1.466-1.983,2.98-4.034,4.518-5.998c0.783-1.002,1.672-1.938,2.613-2.928c1.006-1.058,2.045-2.151,2.979-3.366
		C73.016,47.999,73.323,46.226,72.65,44.709z M29.849,28.114c0.333,0.483,0.654,0.763,0.602,0.912
		c-0.134,0.383-0.434,0.708-0.668,1.058c-0.204-0.195-0.6-0.423-0.574-0.579C29.274,29.116,29.533,28.76,29.849,28.114z
		 M15.775,37.755c0.097-0.239,0.346-0.612,0.493-0.597c0.366,0.036,0.855,0.16,1.044,0.426c0.547,0.771,0.047,2.009-0.849,2.285
		c-0.458,0.142-0.925,0.254-1.627,0.446C15.196,39.318,15.461,38.527,15.775,37.755z M4.903,41.038
		c-0.393-0.024-0.77-0.284-1.147-0.439c0.073-0.06,0.144-0.124,0.215-0.19c0.011,0.011,0.021,0.022,0.032,0.033
		c0.048-0.008,0.094-0.016,0.142-0.024c-0.008-0.047-0.016-0.098-0.023-0.146c0.199-0.183,0.404-0.361,0.643-0.463
		c0.297-0.127,0.731-0.085,1.041,0.041c0.094,0.038,0.157,0.401,0.125,0.628c-0.139,0.025-0.291,0.096-0.478,0.218
		c0.042,0.05,0.086,0.102,0.128,0.151C5.366,40.969,5.117,41.052,4.903,41.038z M16.527,81.154c0.083,0.181,0.212,0.463,0.509,1.113
		c-1.298-0.26-2.361-0.474-3.429-0.687c0.671-1.999,1.344-2.223,4.389-1.269C17.411,80.647,17.023,80.87,16.527,81.154z
		 M48.462,74.01c-0.007-0.097-0.015-0.194-0.021-0.291c0.48-0.011,0.983-0.099,1.43,0.021c0.123,0.033,0.083,0.683,0.142,1.297
		C49.281,74.552,48.871,74.282,48.462,74.01z M64.471,56.844c-0.539-0.581-1.079-1.16-1.616-1.741
		c0.076-0.073,0.154-0.147,0.232-0.222c0.519,0.597,1.038,1.194,1.557,1.791C64.586,56.73,64.529,56.787,64.471,56.844z"/>
	<path fill-rule="evenodd" clip-rule="evenodd" fill="#F9B43B" d="M45.059,61.691c0.208-0.063,0.493-0.29,0.518-0.478
		c0.188-1.547-0.394-2.871-1.282-4.263c-0.234,0.913-0.966,1.523-0.45,2.448c0.327,0.591,0.475,1.28,0.749,1.905
		C44.669,61.479,44.949,61.725,45.059,61.691z"/>
	<path fill-rule="evenodd" clip-rule="evenodd" fill="#F9B43B" d="M58.366,71.68c0.055,0.162,0.108,0.325,0.162,0.487
		c0.872-0.287,1.742-0.574,2.613-0.861c-0.044-0.13-0.087-0.261-0.13-0.392C60.128,71.169,59.248,71.425,58.366,71.68z"/>
	<path fill-rule="evenodd" clip-rule="evenodd" fill="#F9B43B" d="M53.317,74.119c0.015-0.134,0.029-0.268,0.044-0.402
		c-0.352-0.021-0.702-0.044-1.054-0.066c-0.162,0.178-0.323,0.354-0.488,0.531C52.306,74.25,52.816,74.153,53.317,74.119z"/>
	<path fill-rule="evenodd" clip-rule="evenodd" fill="#F9B43B" d="M46.789,68.676c-0.311,0.742-0.55,1.313-0.804,1.918
		c1.103,0.145,0.923-0.884,1.259-1.406C47.28,69.132,46.932,68.833,46.789,68.676z"/>
</g>
</svg>
